<?xml version="1.0" standalone="no"?>
<!DOCTYPE svg PUBLIC "-//W3C//DTD SVG 20010904//EN"
 "http://www.w3.org/TR/2001/REC-SVG-20010904/DTD/svg10.dtd">
<svg version="1.0" xmlns="http://www.w3.org/2000/svg"
 width="150.000000pt" height="150.000000pt" viewBox="0 0 150.000000 150.000000"
 preserveAspectRatio="xMidYMid meet">
<metadata>
Created by potrace 1.14, written by Peter Selinger 2001-2017
</metadata>
<g transform="translate(0.000000,150.000000) scale(0.100000,-0.100000)"
fill="#000000" stroke="none">
<path d="M705 1486 c-17 -12 -17 -16 -2 -62 11 -33 13 -52 6 -61 -6 -7 -7 -22
-3 -35 16 -45 12 -68 -13 -68 -43 0 -170 -47 -226 -84 -49 -33 -58 -36 -76
-24 -12 7 -21 21 -21 31 0 10 -10 21 -21 26 -12 4 -29 22 -38 41 -24 50 -45
59 -78 34 -16 -12 -29 -33 -31 -47 -3 -23 3 -30 40 -48 24 -12 49 -31 54 -43
5 -11 15 -20 21 -19 6 1 18 -6 28 -17 16 -17 15 -22 -24 -85 -48 -81 -78 -163
-80 -227 -1 -20 -45 -25 -71 -8 -9 5 -19 5 -27 -2 -7 -6 -21 -8 -30 -5 -10 3
-33 10 -50 15 -26 8 -36 7 -48 -4 -19 -19 -19 -64 -1 -89 13 -18 16 -19 63 -4
36 12 53 13 66 5 12 -8 22 -8 36 1 24 15 61 6 62 -16 3 -65 33 -149 80 -221
43 -66 42 -95 -3 -102 -14 -2 -24 -11 -26 -23 -2 -13 -18 -26 -47 -39 -52 -21
-57 -41 -22 -80 36 -41 59 -37 84 13 12 24 33 49 45 55 13 6 23 18 23 26 0 8
10 21 23 28 20 11 26 10 55 -12 46 -35 131 -72 201 -87 63 -14 75 -27 59 -69
-6 -16 -7 -34 -2 -43 6 -9 3 -31 -6 -57 -18 -51 -18 -45 1 -64 19 -20 64 -21
90 -2 18 14 18 16 2 62 -13 36 -14 52 -6 61 8 10 8 20 -2 37 -22 42 -6 60 69
78 79 19 128 40 187 81 37 26 44 27 63 16 11 -8 21 -22 21 -32 0 -9 10 -21 23
-26 13 -5 31 -27 42 -50 13 -29 24 -41 39 -41 31 1 66 34 66 63 0 20 -9 29
-45 46 -25 12 -45 28 -45 36 0 14 -33 38 -42 30 -3 -3 -10 6 -18 19 -11 21
-10 27 7 45 31 34 72 125 92 204 15 60 21 73 40 75 12 2 28 -2 36 -8 10 -8 19
-8 33 -1 15 8 32 6 67 -6 46 -15 49 -15 62 2 18 26 16 59 -5 85 -18 23 -19 23
-67 7 -26 -9 -53 -13 -59 -9 -12 9 -22 9 -46 -1 -13 -5 -50 -6 -50 -2 0 1 -5
28 -11 60 -12 68 -49 155 -86 203 -21 29 -24 38 -14 58 6 13 19 24 30 24 11 0
23 9 26 21 4 11 27 30 51 42 51 24 56 46 19 82 -37 38 -63 32 -84 -16 -10 -23
-29 -46 -42 -53 -13 -7 -23 -19 -23 -28 1 -9 -8 -21 -20 -28 -19 -10 -29 -6
-74 24 -70 47 -164 82 -232 85 -19 1 -25 48 -9 67 7 9 7 19 0 32 -8 15 -7 31
4 62 18 51 18 45 -1 64 -19 20 -64 21 -89 2z m61 -305 c-10 -16 -36 -13 -36 3
0 17 21 27 34 16 4 -5 5 -13 2 -19z m-40 -98 c1 -11 5 -26 9 -32 4 -7 -1 -22
-12 -34 -16 -18 -19 -36 -18 -89 0 -38 -2 -68 -6 -68 -4 0 -15 -3 -25 -7 -11
-4 -15 -3 -11 4 13 21 -37 77 -78 88 -24 7 -44 20 -50 33 -5 12 -13 22 -17 22
-5 0 -8 6 -8 13 0 18 84 66 144 82 61 16 71 15 72 -12z m176 -3 c24 -11 53
-28 66 -38 l23 -18 -23 -33 c-16 -23 -32 -35 -52 -37 -56 -6 -107 -84 -71
-110 36 -26 104 22 108 76 2 31 62 76 80 61 37 -30 99 -200 73 -202 -13 -2
-29 -5 -36 -8 -21 -10 -42 -7 -53 8 -9 13 -26 17 -67 16 -30 0 -56 -5 -57 -10
-2 -6 17 -10 41 -10 25 0 48 -3 52 -8 4 -4 -21 -7 -55 -7 -58 0 -62 2 -72 28
-14 38 -47 70 -78 77 -25 5 -26 9 -24 63 2 77 2 79 11 65 4 -7 7 -35 6 -63 0
-28 3 -53 8 -56 4 -3 8 1 9 8 6 97 4 112 -14 134 -13 17 -16 31 -11 46 4 13 7
29 5 37 -4 19 74 8 131 -19z m-446 -11 c10 -17 -13 -36 -27 -22 -12 12 -4 33
11 33 5 0 12 -5 16 -11z m620 0 c10 -17 -13 -36 -27 -22 -12 12 -4 33 11 33 5
0 12 -5 16 -11z m-532 -154 c7 -35 55 -85 82 -85 16 0 16 -2 9 -22 -4 -11 -22
-14 -70 -11 -52 3 -68 0 -82 -14 -15 -15 -24 -16 -59 -8 l-41 10 13 50 c7 28
13 52 14 56 0 3 13 26 30 52 l29 47 35 -21 c24 -14 36 -29 40 -54z m196 15 c0
-33 -4 -60 -8 -60 -4 0 -8 27 -8 60 -1 33 3 60 8 60 4 0 8 -27 8 -60z m44
-111 c38 -18 52 -70 30 -108 -48 -81 -168 -21 -139 69 6 20 48 49 72 50 7 0
23 -5 37 -11z m-164 -50 c0 -5 -27 -8 -60 -8 -33 1 -57 5 -54 10 7 12 114 9
114 -2z m-294 -10 c10 -17 -13 -36 -27 -22 -12 12 -4 33 11 33 5 0 12 -5 16
-11z m880 0 c10 -17 -13 -36 -27 -22 -12 12 -4 33 11 33 5 0 12 -5 16 -11z
m-588 -18 c6 -1 12 -10 12 -20 0 -11 5 -23 10 -26 18 -11 10 -25 -14 -25 -28
0 -76 -51 -76 -81 0 -20 -21 -49 -36 -49 -4 0 -15 -7 -25 -16 -15 -14 -19 -13
-38 15 -28 39 -50 92 -60 146 l-8 43 41 6 c32 6 43 3 53 -10 11 -16 28 -18
116 -15 55 2 25 21 -35 22 -43 1 -55 3 -38 8 14 4 39 6 55 5 17 -1 36 -3 43
-3z m372 -3 c0 -5 -28 -8 -62 -8 -46 0 -59 -3 -51 -11 17 -17 123 -12 144 7
12 11 27 13 53 9 29 -6 36 -12 36 -31 0 -37 -30 -116 -60 -157 -26 -35 -29
-37 -44 -22 -9 9 -16 13 -16 9 0 -4 -8 1 -19 10 -10 9 -18 29 -18 43 0 31 -52
83 -83 83 -31 0 -43 -34 -25 -70 17 -32 43 -50 74 -50 11 0 32 -15 47 -35 l26
-35 -23 -20 c-59 -48 -204 -92 -198 -59 2 8 -1 25 -5 37 -6 17 -3 30 11 45 16
18 19 34 17 89 -3 58 -1 68 15 73 24 7 51 47 53 78 2 23 6 24 65 23 35 -1 63
-4 63 -8z m-285 -176 c-1 -52 3 -70 18 -85 13 -13 16 -25 11 -40 -5 -12 -7
-28 -5 -36 4 -21 -78 -7 -145 26 -70 34 -79 45 -62 74 17 31 35 50 45 48 40
-7 93 36 93 75 0 23 2 25 23 15 21 -9 23 -17 22 -77z m69 9 c-3 -70 -6 -78
-14 -32 -7 46 -2 100 9 83 3 -6 5 -29 5 -51z m-34 -5 c0 -30 -4 -57 -8 -60 -5
-3 -9 22 -8 54 0 33 4 60 8 60 4 0 8 -24 8 -54z m-284 -117 c10 -17 -13 -36
-27 -22 -12 12 -4 33 11 33 5 0 12 -5 16 -11z m620 0 c10 -17 -13 -36 -27 -22
-12 12 -4 33 11 33 5 0 12 -5 16 -11z m-310 -130 c10 -17 -13 -36 -27 -22 -12
12 -4 33 11 33 5 0 12 -5 16 -11z"/>
</g>
</svg>
